<svg width="1160" height="500" viewBox="0 0 1160 500" fill="none" xmlns="http://www.w3.org/2000/svg">
  <defs>
    <linearGradient id="bg" x1="0" y1="0" x2="1160" y2="500">
      <stop offset="0%" stop-color="#020617"/>
      <stop offset="45%" stop-color="#111827"/>
      <stop offset="100%" stop-color="#312E81"/>
    </linearGradient>
    <linearGradient id="line" x1="0" y1="0" x2="1160" y2="0">
      <stop stop-color="#22C55E"/>
      <stop offset="0.5" stop-color="#A855F7"/>
      <stop offset="1" stop-color="#60A5FA"/>
    </linearGradient>
  </defs>
  <rect width="1160" height="500" rx="26" fill="url(#bg)"/>
  <rect x="1" y="1" width="1158" height="498" rx="25" stroke="url(#line)" stroke-opacity="0.7"/>
  <circle cx="1010" cy="80" r="150" fill="#A855F7" opacity="0.08"/>
  <circle cx="120" cy="420" r="160" fill="#22C55E" opacity="0.10"/>
  <text x="60" y="72" fill="#FFFFFF" font-size="32" font-weight="850" font-family="Inter,Segoe UI,Arial">GitHub Achievement Board</text>
  <text x="60" y="104" fill="#9CA3AF" font-size="15" font-family="Inter,Segoe UI,Arial">Reliable local trophy cards generated from GitHub API data | 2026-07-23</text>
  
    <g transform="translate(58,138)">
      <rect width="332" height="126" rx="18" fill="#111827" stroke="#22C55E" stroke-opacity="0.55"/>
      <circle cx="54" cy="63" r="31" fill="#22C55E" opacity="0.18"/>
      <path d="M42 45h24v15c0 11-5 20-12 23-7-3-12-12-12-23V45z" fill="#22C55E"/>
      <text x="100" y="48" fill="#FFFFFF" font-size="20" font-weight="800" font-family="Inter,Segoe UI,Arial">Data Builder</text>
      <text x="100" y="76" fill="#9CA3AF" font-size="13" font-family="Inter,Segoe UI,Arial">Portfolio direction</text>
      <text x="100" y="106" fill="#22C55E" font-size="24" font-weight="850" font-family="Inter,Segoe UI,Arial">Analytics + AI</text>
    </g>
    
    <g transform="translate(424,138)">
      <rect width="332" height="126" rx="18" fill="#111827" stroke="#A855F7" stroke-opacity="0.55"/>
      <circle cx="54" cy="63" r="31" fill="#A855F7" opacity="0.18"/>
      <path d="M42 45h24v15c0 11-5 20-12 23-7-3-12-12-12-23V45z" fill="#A855F7"/>
      <text x="100" y="48" fill="#FFFFFF" font-size="20" font-weight="800" font-family="Inter,Segoe UI,Arial">Project Base</text>
      <text x="100" y="76" fill="#9CA3AF" font-size="13" font-family="Inter,Segoe UI,Arial">Public portfolio count</text>
      <text x="100" y="106" fill="#A855F7" font-size="24" font-weight="850" font-family="Inter,Segoe UI,Arial">25</text>
    </g>
    
    <g transform="translate(790,138)">
      <rect width="332" height="126" rx="18" fill="#111827" stroke="#60A5FA" stroke-opacity="0.55"/>
      <circle cx="54" cy="63" r="31" fill="#60A5FA" opacity="0.18"/>
      <path d="M42 45h24v15c0 11-5 20-12 23-7-3-12-12-12-23V45z" fill="#60A5FA"/>
      <text x="100" y="48" fill="#FFFFFF" font-size="20" font-weight="800" font-family="Inter,Segoe UI,Arial">Community</text>
      <text x="100" y="76" fill="#9CA3AF" font-size="13" font-family="Inter,Segoe UI,Arial">GitHub followers</text>
      <text x="100" y="106" fill="#60A5FA" font-size="24" font-weight="850" font-family="Inter,Segoe UI,Arial">0</text>
    </g>
    
    <g transform="translate(58,294)">
      <rect width="332" height="126" rx="18" fill="#111827" stroke="#F59E0B" stroke-opacity="0.55"/>
      <circle cx="54" cy="63" r="31" fill="#F59E0B" opacity="0.18"/>
      <path d="M42 45h24v15c0 11-5 20-12 23-7-3-12-12-12-23V45z" fill="#F59E0B"/>
      <text x="100" y="48" fill="#FFFFFF" font-size="20" font-weight="800" font-family="Inter,Segoe UI,Arial">Recognition</text>
      <text x="100" y="76" fill="#9CA3AF" font-size="13" font-family="Inter,Segoe UI,Arial">Total repository stars</text>
      <text x="100" y="106" fill="#F59E0B" font-size="24" font-weight="850" font-family="Inter,Segoe UI,Arial">3</text>
    </g>
    
    <g transform="translate(424,294)">
      <rect width="332" height="126" rx="18" fill="#111827" stroke="#EC4899" stroke-opacity="0.55"/>
      <circle cx="54" cy="63" r="31" fill="#EC4899" opacity="0.18"/>
      <path d="M42 45h24v15c0 11-5 20-12 23-7-3-12-12-12-23V45z" fill="#EC4899"/>
      <text x="100" y="48" fill="#FFFFFF" font-size="20" font-weight="800" font-family="Inter,Segoe UI,Arial">Top Language</text>
      <text x="100" y="76" fill="#9CA3AF" font-size="13" font-family="Inter,Segoe UI,Arial">Primary repo language</text>
      <text x="100" y="106" fill="#EC4899" font-size="24" font-weight="850" font-family="Inter,Segoe UI,Arial">Python</text>
    </g>
    
    <g transform="translate(790,294)">
      <rect width="332" height="126" rx="18" fill="#111827" stroke="#14B8A6" stroke-opacity="0.55"/>
      <circle cx="54" cy="63" r="31" fill="#14B8A6" opacity="0.18"/>
      <path d="M42 45h24v15c0 11-5 20-12 23-7-3-12-12-12-23V45z" fill="#14B8A6"/>
      <text x="100" y="48" fill="#FFFFFF" font-size="20" font-weight="800" font-family="Inter,Segoe UI,Arial">Learning Track</text>
      <text x="100" y="76" fill="#9CA3AF" font-size="13" font-family="Inter,Segoe UI,Arial">Current career path</text>
      <text x="100" y="106" fill="#14B8A6" font-size="24" font-weight="850" font-family="Inter,Segoe UI,Arial">DS + GenAI</text>
    </g>
    
</svg>
